# xmcd
#
# Track frame offsets: 
#        150
#        14309
#        27894
#        45125
#        63476
#        76149
#        90073
#        110698
#        121862
#        136820
#
# Disc length: 2139 seconds
#
# Revision: 0
# Processed by: cddbd v1.5.2PL0 Copyright (c) Steve Scherf et al.
# Submitted via: ExactAudioCopy v0.99pb5
#
DISCID=6708590a
DTITLE=Jerry Jeff Walker - Cowjazz
DYEAR=1982
DGENRE=Country
TTITLE0=Dealing With The Devil
TTITLE1=Don't Think Twice, It's Alright
TTITLE2=Old '59
TTITLE3=Green Back Dollar
TTITLE4=Lovin' Of The Game
TTITLE5=Laying My Life On The Line
TTITLE6=Still Around
TTITLE7=Promise
TTITLE8=Tangee
TTITLE9=Wind
EXTD=
EXTT0=
EXTT1=
EXTT2=
EXTT3=
EXTT4=
EXTT5=
EXTT6=
EXTT7=
EXTT8=
EXTT9=
PLAYORDER=
